<svg width="173" height="43" viewBox="0 0 173 43" fill="none" xmlns="http://www.w3.org/2000/svg">
<g clip-path="url(#clip0)">
<path d="M80.1765 37.2248L87.4544 4.65306C87.5737 4.17582 88.0509 3.81789 88.5282 3.81789H99.5047C99.5047 3.81789 94.613 25.4131 94.3744 26.8448C94.0165 28.2765 92.5847 29.1117 91.7496 29.3503H105.828L104.277 36.3896C104.158 36.8669 103.681 37.2248 103.203 37.2248H80.1765ZM130.883 37.2248C131.361 37.2248 131.838 36.8669 131.957 36.3896L133.508 29.3503H119.43C120.265 29.1117 121.696 28.2765 122.054 26.8448C122.412 25.4131 127.185 3.81789 127.185 3.81789H116.208C115.731 3.81789 115.254 4.17582 115.134 4.65306L107.856 37.2248H130.883ZM172.045 37.702L167.75 33.5262L163.455 37.702L167.75 41.8779L172.045 37.702ZM76.7165 36.2703C76.7165 36.7475 76.3585 37.2248 75.8813 37.2248H65.6206C65.6206 37.2248 65.2627 32.9296 65.1434 31.6172C65.024 30.3048 65.9785 29.5889 66.6944 29.3503H55.002L51.542 36.3896C51.3034 36.8669 50.8261 37.2248 50.2296 37.2248H40.804L57.3882 4.41444C57.6268 4.05651 57.9847 3.81789 58.462 3.81789H73.2565L76.7165 36.2703ZM64.5468 22.4303L63.7116 11.6924C63.7116 11.6924 60.1323 18.9703 59.7744 19.8055C59.0585 21.2372 58.104 21.9531 57.3882 22.311H64.5468V22.4303ZM150.57 13.0048C150.57 12.0503 151.405 10.4993 155.581 10.4993C158.205 10.4993 161.069 11.3344 162.381 11.6924C162.859 11.8117 163.336 11.5731 163.455 11.2151L165.841 4.89168C165.841 4.89168 161.904 3.45996 156.416 3.45996C145.559 3.45996 139.593 8.59031 139.593 14.9138C139.593 19.5669 152.001 18.4931 152.001 27.2027C152.001 28.6344 150.45 29.7082 146.871 29.7082C144.007 29.7082 140.19 28.7538 138.4 28.2765C137.923 28.1572 137.445 28.3958 137.326 28.8731L135.656 36.151C135.656 36.151 141.502 37.3441 146.513 37.3441C158.683 37.3441 163.813 31.6172 163.813 26.2482C163.932 16.942 150.57 16.942 150.57 13.0048ZM24.5778 37.2248H35.5544C36.0316 37.2248 36.5089 36.8669 36.6282 36.3896L43.9061 3.81789H32.9296C32.4523 3.81789 31.9751 4.17582 31.8558 4.65306L28.9923 17.3H17.1806C18.0158 17.0613 19.4475 16.2262 19.8054 14.7944C20.1634 13.3627 22.1916 3.9372 22.1916 3.9372H11.3344C10.8571 3.9372 10.3799 4.29513 10.2606 4.77237L2.98267 37.2248H13.9592C14.4365 37.2248 14.9137 36.8669 15.033 36.3896L17.5385 25.0551H29.3503C28.5151 25.2938 27.0834 26.1289 26.7254 27.5607C26.4868 28.9924 24.5778 37.2248 24.5778 37.2248Z" stroke="#5BC5F2" stroke-width="1.35286" stroke-miterlimit="10"/>
<path d="M80.1765 37.2248L87.4544 4.65306C87.5737 4.17582 88.0509 3.81789 88.5282 3.81789H99.5047C99.5047 3.81789 94.613 25.4131 94.3744 26.8448C94.0165 28.2765 92.5847 29.1117 91.7496 29.3503H105.828L104.277 36.3896C104.158 36.8669 103.681 37.2248 103.203 37.2248H80.1765ZM130.883 37.2248C131.361 37.2248 131.838 36.8669 131.957 36.3896L133.508 29.3503H119.43C120.265 29.1117 121.696 28.2765 122.054 26.8448C122.412 25.4131 127.185 3.81789 127.185 3.81789H116.208C115.731 3.81789 115.254 4.17582 115.134 4.65306L107.856 37.2248H130.883ZM172.045 37.702L167.75 33.5262L163.455 37.702L167.75 41.8779L172.045 37.702ZM76.7165 36.2703C76.7165 36.7475 76.3585 37.2248 75.8813 37.2248H65.6206C65.6206 37.2248 65.2627 32.9296 65.1434 31.6172C65.024 30.3048 65.9785 29.5889 66.6944 29.3503H55.002L51.542 36.3896C51.3034 36.8669 50.8261 37.2248 50.2296 37.2248H40.804L57.3882 4.41444C57.6268 4.05651 57.9847 3.81789 58.462 3.81789H73.2565L76.7165 36.2703ZM64.5468 22.4303L63.7116 11.6924C63.7116 11.6924 60.1323 18.9703 59.7744 19.8055C59.0585 21.2372 58.104 21.9531 57.3882 22.311H64.5468V22.4303ZM150.57 13.0048C150.57 12.0503 151.405 10.4993 155.581 10.4993C158.205 10.4993 161.069 11.3344 162.381 11.6924C162.859 11.8117 163.336 11.5731 163.455 11.2151L165.841 4.89168C165.841 4.89168 161.904 3.45996 156.416 3.45996C145.559 3.45996 139.593 8.59031 139.593 14.9138C139.593 19.5669 152.001 18.4931 152.001 27.2027C152.001 28.6344 150.45 29.7082 146.871 29.7082C144.007 29.7082 140.19 28.7538 138.4 28.2765C137.923 28.1572 137.445 28.3958 137.326 28.8731L135.656 36.151C135.656 36.151 141.502 37.3441 146.513 37.3441C158.683 37.3441 163.813 31.6172 163.813 26.2482C163.932 16.942 150.57 16.942 150.57 13.0048ZM24.5778 37.2248H35.5544C36.0316 37.2248 36.5089 36.8669 36.6282 36.3896L43.9061 3.81789H32.9296C32.4523 3.81789 31.9751 4.17582 31.8558 4.65306L28.9923 17.3H17.1806C18.0158 17.0613 19.4475 16.2262 19.8054 14.7944C20.1634 13.3627 22.1916 3.9372 22.1916 3.9372H11.3344C10.8571 3.9372 10.3799 4.29513 10.2606 4.77237L2.98267 37.2248H13.9592C14.4365 37.2248 14.9137 36.8669 15.033 36.3896L17.5385 25.0551H29.3503C28.5151 25.2938 27.0834 26.1289 26.7254 27.5607C26.4868 28.9924 24.5778 37.2248 24.5778 37.2248Z" fill="#5BC5F2"/>
<path d="M78.7448 35.7931L86.142 2.38618C86.2613 1.90894 86.7386 1.55101 87.2158 1.55101H98.1924C98.1924 1.55101 93.3006 23.7427 93.062 25.1745C92.7041 26.6062 91.2724 27.5607 90.4372 27.7993H104.516L102.965 34.9579C102.845 35.4351 102.368 35.7931 101.891 35.7931H78.7448ZM129.571 35.7931C130.048 35.7931 130.525 35.4351 130.645 34.9579L132.196 27.7993H118.117C118.952 27.5607 120.384 26.6062 120.742 25.1745C121.1 23.7427 125.872 1.55101 125.872 1.55101H114.896C114.419 1.55101 113.941 1.90894 113.822 2.38618L106.544 35.7931H129.571ZM171.091 35.9124L166.08 30.9014L161.069 35.9124L166.08 40.9234L171.091 35.9124ZM74.9268 34.8386C74.9268 35.3158 74.5689 35.7931 74.0917 35.7931H63.9503C63.9503 35.7931 63.5924 31.3786 63.4731 30.0662C63.3537 28.7538 64.3082 28.0379 65.0241 27.7993H53.3317L49.8717 34.9579C49.633 35.4351 49.1558 35.7931 48.5593 35.7931H39.1337L55.4793 2.26687C55.7179 1.90894 56.0758 1.67032 56.5531 1.67032H71.3475L74.9268 34.8386ZM62.6379 20.6407L61.8027 9.66412C61.8027 9.66412 58.2234 17.1807 57.8655 18.0158C57.1496 19.4476 56.1951 20.2827 55.4793 20.6407H62.6379ZM149.496 11.0958C149.496 10.1414 150.331 8.59032 154.507 8.59032C157.132 8.59032 159.995 9.42549 161.308 9.78343C161.785 9.90274 162.262 9.66412 162.381 9.30618L164.768 2.86343C164.768 2.86343 160.83 1.4317 155.342 1.4317C144.485 1.4317 138.519 6.68136 138.519 13.1241C138.519 21.7145 150.928 21.4758 150.928 25.6517C150.928 27.0834 149.257 28.2765 145.797 28.2765C142.934 28.2765 139.116 27.322 137.326 26.7255C136.849 26.6062 136.372 26.8448 136.252 27.4414L134.582 34.8386C134.582 34.8386 140.428 36.151 145.439 36.151C157.609 36.151 162.739 30.3048 162.739 24.8165C162.739 15.1524 149.496 15.0331 149.496 11.0958ZM23.2655 35.7931H34.242C34.7193 35.7931 35.1965 35.4351 35.3158 34.9579L42.5937 1.67032H31.6172C31.1399 1.67032 30.6627 2.02825 30.5434 2.50549L27.6799 15.391H15.8682C16.7034 15.1524 18.1351 14.1979 18.493 12.7662C18.851 11.3345 20.8793 1.55101 20.8793 1.55101H10.022C9.54477 1.55101 9.06753 1.90894 8.94822 2.38618L1.67029 35.7931H12.6468C13.1241 35.7931 13.6013 35.4351 13.7206 34.9579L16.2262 23.3848H28.0379C27.2027 23.6234 25.771 24.5779 25.413 26.0096C25.1744 27.4414 23.2655 35.7931 23.2655 35.7931Z" stroke="#003088" stroke-width="2.7056" stroke-miterlimit="10"/>
<path d="M78.7448 35.7931L86.142 2.38618C86.2613 1.90894 86.7386 1.55101 87.2158 1.55101H98.1924C98.1924 1.55101 93.3006 23.7427 93.062 25.1745C92.7041 26.6062 91.2724 27.5607 90.4372 27.7993H104.516L102.965 34.9579C102.845 35.4351 102.368 35.7931 101.891 35.7931H78.7448ZM129.571 35.7931C130.048 35.7931 130.525 35.4351 130.645 34.9579L132.196 27.7993H118.117C118.952 27.5607 120.384 26.6062 120.742 25.1745C121.1 23.7427 125.872 1.55101 125.872 1.55101H114.896C114.419 1.55101 113.941 1.90894 113.822 2.38618L106.544 35.7931H129.571ZM171.091 35.9124L166.08 30.9014L161.069 35.9124L166.08 40.9234L171.091 35.9124ZM74.9268 34.8386C74.9268 35.3158 74.5689 35.7931 74.0917 35.7931H63.9503C63.9503 35.7931 63.5924 31.3786 63.4731 30.0662C63.3537 28.7538 64.3082 28.0379 65.0241 27.7993H53.3317L49.8717 34.9579C49.633 35.4351 49.1558 35.7931 48.5593 35.7931H39.1337L55.4793 2.26687C55.7179 1.90894 56.0758 1.67032 56.5531 1.67032H71.3475L74.9268 34.8386ZM62.6379 20.6407L61.8027 9.66412C61.8027 9.66412 58.2234 17.1807 57.8655 18.0158C57.1496 19.4476 56.1951 20.2827 55.4793 20.6407H62.6379ZM149.496 11.0958C149.496 10.1414 150.331 8.59032 154.507 8.59032C157.132 8.59032 159.995 9.42549 161.308 9.78343C161.785 9.90274 162.262 9.66412 162.381 9.30618L164.768 2.86343C164.768 2.86343 160.83 1.4317 155.342 1.4317C144.485 1.4317 138.519 6.68136 138.519 13.1241C138.519 21.7145 150.928 21.4758 150.928 25.6517C150.928 27.0834 149.257 28.2765 145.797 28.2765C142.934 28.2765 139.116 27.322 137.326 26.7255C136.849 26.6062 136.372 26.8448 136.252 27.4414L134.582 34.8386C134.582 34.8386 140.428 36.151 145.439 36.151C157.609 36.151 162.739 30.3048 162.739 24.8165C162.739 15.1524 149.496 15.0331 149.496 11.0958ZM23.2655 35.7931H34.242C34.7193 35.7931 35.1965 35.4351 35.3158 34.9579L42.5937 1.67032H31.6172C31.1399 1.67032 30.6627 2.02825 30.5434 2.50549L27.6799 15.391H15.8682C16.7034 15.1524 18.1351 14.1979 18.493 12.7662C18.851 11.3345 20.8793 1.55101 20.8793 1.55101H10.022C9.54477 1.55101 9.06753 1.90894 8.94822 2.38618L1.67029 35.7931H12.6468C13.1241 35.7931 13.6013 35.4351 13.7206 34.9579L16.2262 23.3848H28.0379C27.2027 23.6234 25.771 24.5779 25.413 26.0096C25.1744 27.4414 23.2655 35.7931 23.2655 35.7931Z" stroke="#003088" stroke-width="1.35286" stroke-miterlimit="10"/>
<path d="M78.7448 35.7931L86.142 2.38618C86.2613 1.90894 86.7386 1.55101 87.2158 1.55101H98.1924C98.1924 1.55101 93.3006 23.7427 93.062 25.1745C92.7041 26.6062 91.2724 27.5607 90.4372 27.7993H104.516L102.965 34.9579C102.845 35.4351 102.368 35.7931 101.891 35.7931H78.7448ZM129.571 35.7931C130.048 35.7931 130.525 35.4351 130.645 34.9579L132.196 27.7993H118.117C118.952 27.5607 120.384 26.6062 120.742 25.1745C121.1 23.7427 125.872 1.55101 125.872 1.55101H114.896C114.419 1.55101 113.941 1.90894 113.822 2.38618L106.544 35.7931H129.571ZM171.091 35.9124L166.08 30.9014L161.069 35.9124L166.08 40.9234L171.091 35.9124ZM74.9268 34.8386C74.9268 35.3158 74.5689 35.7931 74.0917 35.7931H63.9503C63.9503 35.7931 63.5924 31.3786 63.4731 30.0662C63.3537 28.7538 64.3082 28.0379 65.0241 27.7993H53.3317L49.8717 34.9579C49.633 35.4351 49.1558 35.7931 48.5593 35.7931H39.1337L55.4793 2.26687C55.7179 1.90894 56.0758 1.67032 56.5531 1.67032H71.3475L74.9268 34.8386ZM62.6379 20.6407L61.8027 9.66412C61.8027 9.66412 58.2234 17.1807 57.8655 18.0158C57.1496 19.4476 56.1951 20.2827 55.4793 20.6407H62.6379ZM149.496 11.0958C149.496 10.1414 150.331 8.59032 154.507 8.59032C157.132 8.59032 159.995 9.42549 161.308 9.78343C161.785 9.90274 162.262 9.66412 162.381 9.30618L164.768 2.86343C164.768 2.86343 160.83 1.4317 155.342 1.4317C144.485 1.4317 138.519 6.68136 138.519 13.1241C138.519 21.7145 150.928 21.4758 150.928 25.6517C150.928 27.0834 149.257 28.2765 145.797 28.2765C142.934 28.2765 139.116 27.322 137.326 26.7255C136.849 26.6062 136.372 26.8448 136.252 27.4414L134.582 34.8386C134.582 34.8386 140.428 36.151 145.439 36.151C157.609 36.151 162.739 30.3048 162.739 24.8165C162.739 15.1524 149.496 15.0331 149.496 11.0958ZM23.2655 35.7931H34.242C34.7193 35.7931 35.1965 35.4351 35.3158 34.9579L42.5937 1.67032H31.6172C31.1399 1.67032 30.6627 2.02825 30.5434 2.50549L27.6799 15.391H15.8682C16.7034 15.1524 18.1351 14.1979 18.493 12.7662C18.851 11.3345 20.8793 1.55101 20.8793 1.55101H10.022C9.54477 1.55101 9.06753 1.90894 8.94822 2.38618L1.67029 35.7931H12.6468C13.1241 35.7931 13.6013 35.4351 13.7206 34.9579L16.2262 23.3848H28.0379C27.2027 23.6234 25.771 24.5779 25.413 26.0096C25.1744 27.4414 23.2655 35.7931 23.2655 35.7931Z" fill="white"/>
</g>
<defs>
<clipPath id="clip0">
<rect width="173" height="42.8324" fill="white"/>
</clipPath>
</defs>
</svg>
