<svg width="63" height="63" viewBox="0 0 63 63" fill="none" xmlns="http://www.w3.org/2000/svg">
<path d="M27.7708 5.84502C27.2506 5.6171 26.6368 5.72475 26.2215 6.11913L11.4756 20.0458H1.43186C0.640426 20.0458 0 20.6862 0 21.4775V41.523C0 42.3144 0.640426 42.9548 1.43186 42.9548H11.4756L26.2216 56.8815C26.4929 57.1388 26.8466 57.2731 27.2046 57.2731C27.3962 57.2731 27.5892 57.2354 27.7709 57.1556C28.2967 56.9305 28.6365 56.4132 28.6365 55.8412V7.15943C28.6363 6.58747 28.2966 6.07013 27.7708 5.84502Z" fill="white"/>
<path d="M35.2297 23.4752L33.1895 25.5154C32.719 25.9859 32.5935 26.746 32.9864 27.283C33.8521 28.4668 34.3637 29.9249 34.3637 31.5003C34.3637 33.0757 33.8521 34.5338 32.9864 35.7175C32.5935 36.2544 32.719 37.0147 33.1895 37.4852L35.2297 39.5253C35.8546 40.1503 36.8753 40.054 37.415 39.354C39.0923 37.1784 40.091 34.4538 40.091 31.5003C40.091 28.5466 39.0923 25.8221 37.415 23.6465C36.8753 22.9464 35.8546 22.8502 35.2297 23.4752Z" fill="white"/>
<path d="M45.4276 15.3797C44.8893 14.7717 43.9307 14.7741 43.3566 15.3483L41.3308 17.3742C40.7881 17.9167 40.7931 18.7695 41.2945 19.3502C44.1122 22.613 45.8183 26.8611 45.8183 31.5002C45.8183 36.1393 44.1122 40.3873 41.2945 43.6504C40.793 44.2311 40.7882 45.0836 41.3308 45.6262L43.3566 47.652C43.9307 48.2264 44.8893 48.2287 45.4278 47.6208C49.2328 43.3244 51.5455 37.6773 51.5455 31.5003C51.5455 25.3232 49.2328 19.6761 45.4276 15.3797Z" fill="white"/>
<path d="M53.5273 7.26711C52.9794 6.67246 52.0305 6.6742 51.4589 7.2459L49.4304 9.27443C48.8863 9.81848 48.889 10.6773 49.408 11.2456C54.2908 16.5935 57.2727 23.7054 57.2727 31.5003C57.2727 39.2953 54.2908 46.4071 49.408 51.755C48.8891 52.3234 48.8862 53.1822 49.4304 53.7263L51.4589 55.7547C52.0306 56.3265 52.9795 56.3281 53.5274 55.7334C59.4055 49.3535 63 40.8388 63 31.5003C63 22.1617 59.4055 13.6469 53.5273 7.26711Z" fill="white"/>
</svg>
