<svg width="29" height="24" viewBox="0 0 29 24" fill="none" xmlns="http://www.w3.org/2000/svg">
<path fill-rule="evenodd" clip-rule="evenodd" d="M12.9571 0.60524H11.3886L10.5376 5.23291H12.106L12.9571 0.60524ZM27.5059 6.77558C27.9759 4.21979 26.2503 2.14791 23.6516 2.14791L23.368 3.69047C25.1004 3.69047 26.2508 5.07172 25.9375 6.77558H5.54798C5.86132 5.07172 7.51973 3.69047 9.25216 3.69047L9.53583 2.14791C6.93719 2.14791 4.44956 4.21979 3.97956 6.77558L1.71021 19.116C1.24022 21.6718 2.96583 23.7437 5.56447 23.7437H19.6803C22.2789 23.7437 24.7665 21.6718 25.2365 19.116L27.5059 6.77558ZM13.9564 3.69047H18.6617L18.9453 2.14791H14.2401L13.9564 3.69047ZM5.26326 8.31803L3.27758 19.1159C2.96425 20.8198 4.11466 22.201 5.84709 22.201H19.9629C21.6953 22.201 23.3537 20.8198 23.6671 19.1159L25.6527 8.31803H5.26326ZM20.7981 0.60524H22.3666L21.5156 5.23291H19.9471L20.7981 0.60524ZM11.2538 9.8607H6.54858L5.69758 14.4884H10.4028L11.2538 9.8607ZM12.822 9.8607H17.5273L16.6763 14.4884H11.971L12.822 9.8607ZM10.1191 16.0308H5.41388L4.56287 20.6585H9.26813L10.1191 16.0308ZM11.6873 16.0308H16.3926L15.5416 20.6585H10.8363L11.6873 16.0308ZM23.802 9.8607H19.0967L18.2457 14.4884H22.951L23.802 9.8607Z" fill="white"/>
</svg>
