<svg width="173" height="43" viewBox="0 0 173 43" fill="none" xmlns="http://www.w3.org/2000/svg">
<g clip-path="url(#clip0)">
<path d="M80.1766 37.2248L87.4545 4.65309C87.5738 4.17585 88.0511 3.81792 88.5283 3.81792H99.5049C99.5049 3.81792 94.6131 25.4131 94.3745 26.8448C94.0166 28.2765 92.5849 29.1117 91.7497 29.3503H105.828L104.277 36.3896C104.158 36.8669 103.681 37.2248 103.203 37.2248H80.1766ZM130.883 37.2248C131.361 37.2248 131.838 36.8669 131.957 36.3896L133.508 29.3503H119.43C120.265 29.1117 121.697 28.2765 122.055 26.8448C122.412 25.4131 127.185 3.81792 127.185 3.81792H116.208C115.731 3.81792 115.254 4.17585 115.135 4.65309L107.857 37.2248H130.883ZM172.046 37.7021L167.75 33.5262L163.455 37.7021L167.75 41.8779L172.046 37.7021ZM76.7166 36.2703C76.7166 36.7476 76.3586 37.2248 75.8814 37.2248H65.6207C65.6207 37.2248 65.2628 32.9296 65.1435 31.6172C65.0242 30.3048 65.9787 29.589 66.6945 29.3503H55.0021L51.5421 36.3896C51.3035 36.8669 50.8262 37.2248 50.2297 37.2248H40.8042L57.3883 4.41447C57.6269 4.05654 57.9849 3.81792 58.4621 3.81792H73.2566L76.7166 36.2703ZM64.5469 22.4303L63.7118 11.6924C63.7118 11.6924 60.1324 18.9703 59.7745 19.8055C59.0586 21.2372 58.1042 21.9531 57.3883 22.311H64.5469V22.4303ZM150.57 13.0048C150.57 12.0503 151.405 10.4993 155.581 10.4993C158.206 10.4993 161.069 11.3345 162.381 11.6924C162.859 11.8117 163.336 11.5731 163.455 11.2152L165.841 4.89172C165.841 4.89172 161.904 3.45999 156.416 3.45999C145.559 3.45999 139.593 8.59034 139.593 14.9138C139.593 19.5669 152.001 18.4931 152.001 27.2027C152.001 28.6345 150.45 29.7083 146.871 29.7083C144.008 29.7083 140.19 28.7538 138.4 28.2765C137.923 28.1572 137.446 28.3959 137.326 28.8731L135.656 36.151C135.656 36.151 141.502 37.3441 146.513 37.3441C158.683 37.3441 163.813 31.6172 163.813 26.2483C163.932 16.9421 150.57 16.9421 150.57 13.0048ZM24.578 37.2248H35.5545C36.0318 37.2248 36.509 36.8669 36.6283 36.3896L43.9062 3.81792H32.9297C32.4524 3.81792 31.9752 4.17585 31.8559 4.65309L28.9924 17.3H17.1807C18.0159 17.0614 19.4476 16.2262 19.8055 14.7945C20.1635 13.3627 22.1918 3.93723 22.1918 3.93723H11.3345C10.8573 3.93723 10.38 4.29516 10.2607 4.77241L2.98279 37.2248H13.9593C14.4366 37.2248 14.9138 36.8669 15.0331 36.3896L17.5386 25.0552H29.3504C28.5152 25.2938 27.0835 26.129 26.7255 27.5607C26.4869 28.9924 24.578 37.2248 24.578 37.2248Z" stroke="#5BC5F2" stroke-width="1.35286" stroke-miterlimit="10"/>
<path d="M80.1766 37.2248L87.4545 4.65309C87.5738 4.17585 88.0511 3.81792 88.5283 3.81792H99.5049C99.5049 3.81792 94.6131 25.4131 94.3745 26.8448C94.0166 28.2765 92.5849 29.1117 91.7497 29.3503H105.828L104.277 36.3896C104.158 36.8669 103.681 37.2248 103.203 37.2248H80.1766ZM130.883 37.2248C131.361 37.2248 131.838 36.8669 131.957 36.3896L133.508 29.3503H119.43C120.265 29.1117 121.697 28.2765 122.055 26.8448C122.412 25.4131 127.185 3.81792 127.185 3.81792H116.208C115.731 3.81792 115.254 4.17585 115.135 4.65309L107.857 37.2248H130.883ZM172.046 37.7021L167.75 33.5262L163.455 37.7021L167.75 41.8779L172.046 37.7021ZM76.7166 36.2703C76.7166 36.7476 76.3587 37.2248 75.8814 37.2248H65.6207C65.6207 37.2248 65.2628 32.9296 65.1435 31.6172C65.0242 30.3048 65.9787 29.589 66.6945 29.3503H55.0021L51.5421 36.3896C51.3035 36.8669 50.8262 37.2248 50.2297 37.2248H40.8042L57.3883 4.41447C57.6269 4.05654 57.9849 3.81792 58.4621 3.81792H73.2566L76.7166 36.2703ZM64.5469 22.4303L63.7118 11.6924C63.7118 11.6924 60.1324 18.9703 59.7745 19.8055C59.0586 21.2372 58.1042 21.9531 57.3883 22.311H64.5469V22.4303ZM150.57 13.0048C150.57 12.0503 151.405 10.4993 155.581 10.4993C158.206 10.4993 161.069 11.3345 162.381 11.6924C162.859 11.8117 163.336 11.5731 163.455 11.2152L165.841 4.89172C165.841 4.89172 161.904 3.45999 156.416 3.45999C145.559 3.45999 139.593 8.59034 139.593 14.9138C139.593 19.5669 152.001 18.4931 152.001 27.2027C152.001 28.6345 150.45 29.7083 146.871 29.7083C144.008 29.7083 140.19 28.7538 138.4 28.2765C137.923 28.1572 137.446 28.3959 137.326 28.8731L135.656 36.151C135.656 36.151 141.502 37.3441 146.513 37.3441C158.683 37.3441 163.813 31.6172 163.813 26.2483C163.932 16.9421 150.57 16.9421 150.57 13.0048ZM24.578 37.2248H35.5545C36.0318 37.2248 36.509 36.8669 36.6283 36.3896L43.9062 3.81792H32.9297C32.4524 3.81792 31.9752 4.17585 31.8559 4.65309L28.9924 17.3H17.1807C18.0159 17.0614 19.4476 16.2262 19.8055 14.7945C20.1635 13.3628 22.1918 3.93723 22.1918 3.93723H11.3345C10.8573 3.93723 10.38 4.29516 10.2607 4.77241L2.98279 37.2248H13.9593C14.4366 37.2248 14.9138 36.8669 15.0331 36.3896L17.5386 25.0552H29.3504C28.5152 25.2938 27.0835 26.129 26.7255 27.5607C26.4869 28.9924 24.578 37.2248 24.578 37.2248Z" fill="#5BC5F2"/>
<path d="M78.7448 35.7931L86.1421 2.38621C86.2614 1.90897 86.7386 1.55104 87.2159 1.55104H98.1924C98.1924 1.55104 93.3007 23.7428 93.0621 25.1745C92.7041 26.6062 91.2724 27.5607 90.4373 27.7993H104.516L102.965 34.9579C102.846 35.4352 102.368 35.7931 101.891 35.7931H78.7448ZM129.571 35.7931C130.048 35.7931 130.526 35.4352 130.645 34.9579L132.196 27.7993H118.117C118.952 27.5607 120.384 26.6062 120.742 25.1745C121.1 23.7428 125.872 1.55104 125.872 1.55104H114.896C114.419 1.55104 113.941 1.90897 113.822 2.38621L106.544 35.7931H129.571ZM171.091 35.9124L166.08 30.9014L161.069 35.9124L166.08 40.9235L171.091 35.9124ZM74.9269 34.8386C74.9269 35.3159 74.569 35.7931 74.0917 35.7931H63.9504C63.9504 35.7931 63.5924 31.3786 63.4731 30.0662C63.3538 28.7538 64.3083 28.0379 65.0241 27.7993H53.3317L49.8717 34.9579C49.6331 35.4352 49.1559 35.7931 48.5593 35.7931H39.1338L55.4793 2.2669C55.7179 1.90897 56.0759 1.67035 56.5531 1.67035H71.3476L74.9269 34.8386ZM62.6379 20.6407L61.8028 9.66415C61.8028 9.66415 58.2235 17.1807 57.8655 18.0159C57.1497 19.4476 56.1952 20.2828 55.4793 20.6407H62.6379ZM149.496 11.0959C149.496 10.1414 150.331 8.59035 154.507 8.59035C157.132 8.59035 159.995 9.42553 161.308 9.78346C161.785 9.90277 162.262 9.66415 162.381 9.30622L164.768 2.86346C164.768 2.86346 160.83 1.43173 155.342 1.43173C144.485 1.43173 138.519 6.68139 138.519 13.1241C138.519 21.7145 150.928 21.4759 150.928 25.6517C150.928 27.0835 149.257 28.2766 145.797 28.2766C142.934 28.2766 139.116 27.3221 137.326 26.7255C136.849 26.6062 136.372 26.8448 136.252 27.4414L134.582 34.8386C134.582 34.8386 140.428 36.151 145.439 36.151C157.609 36.151 162.739 30.3048 162.739 24.8166C162.739 15.1524 149.496 15.0331 149.496 11.0959ZM23.2655 35.7931H34.2421C34.7193 35.7931 35.1966 35.4352 35.3159 34.9579L42.5938 1.67035H31.6172C31.14 1.67035 30.6628 2.02828 30.5435 2.50553L27.68 15.391H15.8683C16.7035 15.1524 18.1352 14.1979 18.4931 12.7662C18.851 11.3345 20.8793 1.55104 20.8793 1.55104H10.0221C9.54483 1.55104 9.06759 1.90897 8.94828 2.38621L1.67035 35.7931H12.6469C13.1241 35.7931 13.6014 35.4352 13.7207 34.9579L16.2262 23.3848H28.0379C27.2028 23.6235 25.771 24.5779 25.4131 26.0097C25.1745 27.4414 23.2655 35.7931 23.2655 35.7931Z" stroke="#003088" stroke-width="2.7056" stroke-miterlimit="10"/>
<path d="M78.7448 35.7931L86.1421 2.38621C86.2614 1.90897 86.7386 1.55104 87.2159 1.55104H98.1924C98.1924 1.55104 93.3007 23.7428 93.0621 25.1745C92.7041 26.6062 91.2724 27.5607 90.4373 27.7993H104.516L102.965 34.9579C102.846 35.4352 102.368 35.7931 101.891 35.7931H78.7448ZM129.571 35.7931C130.048 35.7931 130.526 35.4352 130.645 34.9579L132.196 27.7993H118.117C118.952 27.5607 120.384 26.6062 120.742 25.1745C121.1 23.7428 125.872 1.55104 125.872 1.55104H114.896C114.419 1.55104 113.941 1.90897 113.822 2.38621L106.544 35.7931H129.571ZM171.091 35.9124L166.08 30.9014L161.069 35.9124L166.08 40.9235L171.091 35.9124ZM74.9269 34.8386C74.9269 35.3159 74.569 35.7931 74.0917 35.7931H63.9504C63.9504 35.7931 63.5924 31.3786 63.4731 30.0662C63.3538 28.7538 64.3083 28.0379 65.0241 27.7993H53.3317L49.8717 34.9579C49.6331 35.4352 49.1559 35.7931 48.5593 35.7931H39.1338L55.4793 2.2669C55.7179 1.90897 56.0759 1.67035 56.5531 1.67035H71.3476L74.9269 34.8386ZM62.6379 20.6407L61.8028 9.66415C61.8028 9.66415 58.2235 17.1807 57.8655 18.0159C57.1497 19.4476 56.1952 20.2828 55.4793 20.6407H62.6379ZM149.496 11.0959C149.496 10.1414 150.331 8.59035 154.507 8.59035C157.132 8.59035 159.995 9.42553 161.308 9.78346C161.785 9.90277 162.262 9.66415 162.381 9.30622L164.768 2.86346C164.768 2.86346 160.83 1.43173 155.342 1.43173C144.485 1.43173 138.519 6.68139 138.519 13.1241C138.519 21.7145 150.928 21.4759 150.928 25.6517C150.928 27.0835 149.257 28.2766 145.797 28.2766C142.934 28.2766 139.116 27.3221 137.326 26.7255C136.849 26.6062 136.372 26.8448 136.252 27.4414L134.582 34.8386C134.582 34.8386 140.428 36.151 145.439 36.151C157.609 36.151 162.739 30.3048 162.739 24.8166C162.739 15.1524 149.496 15.0331 149.496 11.0959ZM23.2655 35.7931H34.2421C34.7193 35.7931 35.1966 35.4352 35.3159 34.9579L42.5938 1.67035H31.6172C31.14 1.67035 30.6628 2.02828 30.5435 2.50553L27.68 15.391H15.8683C16.7035 15.1524 18.1352 14.1979 18.4931 12.7662C18.851 11.3345 20.8793 1.55104 20.8793 1.55104H10.0221C9.54483 1.55104 9.06759 1.90897 8.94828 2.38621L1.67035 35.7931H12.6469C13.1241 35.7931 13.6014 35.4352 13.7207 34.9579L16.2262 23.3848H28.0379C27.2028 23.6235 25.771 24.5779 25.4131 26.0097C25.1745 27.4414 23.2655 35.7931 23.2655 35.7931Z" stroke="#003088" stroke-width="1.35286" stroke-miterlimit="10"/>
<path d="M78.7448 35.7931L86.1421 2.38621C86.2614 1.90897 86.7386 1.55104 87.2159 1.55104H98.1924C98.1924 1.55104 93.3007 23.7428 93.0621 25.1745C92.7041 26.6062 91.2724 27.5607 90.4373 27.7993H104.516L102.965 34.9579C102.846 35.4352 102.368 35.7931 101.891 35.7931H78.7448ZM129.571 35.7931C130.048 35.7931 130.526 35.4352 130.645 34.9579L132.196 27.7993H118.117C118.952 27.5607 120.384 26.6062 120.742 25.1745C121.1 23.7428 125.872 1.55104 125.872 1.55104H114.896C114.419 1.55104 113.941 1.90897 113.822 2.38621L106.544 35.7931H129.571ZM171.091 35.9124L166.08 30.9014L161.069 35.9124L166.08 40.9235L171.091 35.9124ZM74.9269 34.8386C74.9269 35.3159 74.569 35.7931 74.0917 35.7931H63.9504C63.9504 35.7931 63.5924 31.3786 63.4731 30.0662C63.3538 28.7538 64.3083 28.0379 65.0241 27.7993H53.3317L49.8717 34.9579C49.6331 35.4352 49.1559 35.7931 48.5593 35.7931H39.1338L55.4793 2.2669C55.7179 1.90897 56.0759 1.67035 56.5531 1.67035H71.3476L74.9269 34.8386ZM62.6379 20.6407L61.8028 9.66415C61.8028 9.66415 58.2235 17.1807 57.8655 18.0159C57.1497 19.4476 56.1952 20.2828 55.4793 20.6407H62.6379ZM149.496 11.0959C149.496 10.1414 150.331 8.59035 154.507 8.59035C157.132 8.59035 159.995 9.42553 161.308 9.78346C161.785 9.90277 162.262 9.66415 162.381 9.30622L164.768 2.86346C164.768 2.86346 160.83 1.43173 155.342 1.43173C144.485 1.43173 138.519 6.68139 138.519 13.1241C138.519 21.7145 150.928 21.4759 150.928 25.6517C150.928 27.0835 149.257 28.2766 145.797 28.2766C142.934 28.2766 139.116 27.3221 137.326 26.7255C136.849 26.6062 136.372 26.8448 136.252 27.4414L134.582 34.8386C134.582 34.8386 140.428 36.151 145.439 36.151C157.609 36.151 162.739 30.3048 162.739 24.8166C162.739 15.1524 149.496 15.0331 149.496 11.0959ZM23.2655 35.7931H34.2421C34.7193 35.7931 35.1966 35.4352 35.3159 34.9579L42.5938 1.67035H31.6172C31.14 1.67035 30.6628 2.02828 30.5435 2.50553L27.68 15.391H15.8683C16.7035 15.1524 18.1352 14.1979 18.4931 12.7662C18.851 11.3345 20.8793 1.55104 20.8793 1.55104H10.0221C9.54483 1.55104 9.06759 1.90897 8.94828 2.38621L1.67035 35.7931H12.6469C13.1241 35.7931 13.6014 35.4352 13.7207 34.9579L16.2262 23.3848H28.0379C27.2028 23.6235 25.771 24.5779 25.4131 26.0097C25.1745 27.4414 23.2655 35.7931 23.2655 35.7931Z" fill="white"/>
</g>
<defs>
<clipPath id="clip0">
<rect width="173" height="42.8324" fill="white"/>
</clipPath>
</defs>
</svg>
