<svg width="329" height="96" viewBox="0 0 329 96" fill="none" xmlns="http://www.w3.org/2000/svg">
<g filter="url(#filter0_d)">
<path d="M16.1796 77.9639C17.6976 77.1719 19.2816 76.6879 20.9536 76.6879C22.3616 76.6879 23.0876 77.1939 23.0876 77.9859C23.0876 78.9319 22.1636 79.4599 20.3816 79.4599H17.3676L16.5096 82.6059H19.6776C21.1736 82.6059 21.8556 83.0899 21.8556 83.9479C21.8556 84.8939 20.8436 85.4879 19.3696 85.4879C17.4996 85.4879 15.8936 84.9379 14.3096 83.6179L11.9556 86.4779C13.7376 88.0619 16.0256 89.0959 19.2596 89.0959C22.9776 89.0959 26.1456 87.3359 26.1456 84.3439C26.1456 82.8259 25.2876 81.8579 23.9896 81.2639C25.9916 80.6259 27.4876 79.4379 27.4876 77.2819C27.4876 74.8179 25.1336 73.0799 21.3716 73.0799C18.7976 73.0799 16.6416 73.7179 14.7936 74.7519L16.1796 77.9639ZM26.3142 88.7879H30.9562L32.8042 86.0159H38.7442L39.1182 88.7879H43.6062L41.2082 73.2779H37.0282L26.3142 88.7879ZM34.9602 82.6939L37.8422 78.2939L38.4142 82.6939H34.9602ZM45.3968 88.7879H49.6868L50.8748 84.3659H53.4268C56.0008 84.3659 58.0908 83.5959 59.4108 82.2759C60.5108 81.1759 61.0608 79.7899 61.0608 78.1399C61.0608 76.8419 60.6648 75.8079 59.8508 75.0159C58.7288 73.8719 57.1228 73.3879 54.5708 73.3879H49.5548L45.3968 88.7879ZM56.2648 77.5459C56.5508 77.8319 56.6828 78.1839 56.6828 78.6459C56.6828 79.2399 56.4848 79.7459 56.0888 80.1639C55.4728 80.7579 54.5708 81.0439 53.3828 81.0439H51.7548L52.8328 76.9739H54.4168C55.2088 76.9739 55.8468 77.1279 56.2648 77.5459ZM78.394 73.3879H70.98C67.922 73.3879 65.92 74.1139 64.6 75.4339C63.566 76.4679 63.06 77.7659 63.06 79.2399C63.06 80.9999 63.896 82.2539 65.128 83.0459L60.2 88.7879H65.238L69.11 84.1239H71.222L69.99 88.7879H74.258L78.394 73.3879ZM73.136 77.0619L72.124 80.7799H69.682C68.252 80.7799 67.416 80.2299 67.416 79.1519C67.416 78.6239 67.592 78.1619 67.966 77.7659C68.428 77.3039 69.242 77.0619 70.364 77.0619H73.136ZM77.8318 85.0039L75.9398 92.1099H79.8778L80.7798 88.7879H91.4938L90.5918 92.1099H94.5518L96.4658 85.0039H94.4418L92.6158 73.2779H87.9298L79.7898 85.0039H77.8318ZM89.1838 77.8099L90.1078 85.1579H84.3438L89.1838 77.8099ZM112.492 73.3879L104.198 81.6379L106.42 73.3879H102.152L97.9939 88.7879H101.976L110.556 80.2299L108.29 88.7879H112.558L116.694 73.3879H112.492ZM124.552 89.0959C127.478 89.0959 129.502 87.9079 130.998 86.2139L128.116 83.6619C127.126 84.6519 126.158 85.2239 124.816 85.2239C123.034 85.2239 121.736 84.0139 121.736 82.0559C121.736 80.5819 122.33 79.2399 123.276 78.2719C124.09 77.4579 125.146 76.9519 126.356 76.9519C127.852 76.9519 128.82 77.6559 129.436 78.9539L133.132 76.9739C132.186 74.5979 130.052 73.0799 126.906 73.0799C124.024 73.0799 121.692 74.1799 120.042 75.8299C118.216 77.6559 117.27 79.9879 117.27 82.3419C117.27 86.4779 120.306 89.0959 124.552 89.0959ZM132.529 88.7879H139.041C141.945 88.7879 144.145 88.0179 145.531 86.6319C146.521 85.6639 147.137 84.2999 147.137 82.6279C147.137 81.3739 146.741 80.3399 145.949 79.5479C144.915 78.5139 143.221 77.9859 141.021 77.9859H139.723L140.955 73.3879H136.687L132.529 88.7879ZM142.781 82.9579C142.781 83.5299 142.583 84.0139 142.165 84.4319C141.571 85.0259 140.647 85.2679 139.525 85.2679H137.765L138.799 81.3519H140.559C141.417 81.3519 142.011 81.5279 142.363 81.9019C142.649 82.1659 142.781 82.5179 142.781 82.9579ZM164.044 89.0959C166.97 89.0959 168.994 87.9079 170.49 86.2139L167.608 83.6619C166.618 84.6519 165.65 85.2239 164.308 85.2239C162.526 85.2239 161.228 84.0139 161.228 82.0559C161.228 80.5819 161.822 79.2399 162.768 78.2719C163.582 77.4579 164.638 76.9519 165.848 76.9519C167.344 76.9519 168.312 77.6559 168.928 78.9539L172.624 76.9739C171.678 74.5979 169.544 73.0799 166.398 73.0799C163.516 73.0799 161.184 74.1799 159.534 75.8299C157.708 77.6559 156.762 79.9879 156.762 82.3419C156.762 86.4779 159.798 89.0959 164.044 89.0959ZM172.021 88.7879H180.007C184.781 88.7879 187.003 86.7419 187.003 84.1019C187.003 82.5179 186.057 81.5279 184.671 81.0219C186.849 80.4939 188.125 79.0419 188.125 77.0839C188.125 75.0819 186.761 73.3879 182.581 73.3879H176.179L172.021 88.7879ZM177.103 85.3559L177.873 82.5179H180.843C182.097 82.5179 182.713 82.9139 182.713 83.7279C182.713 84.6959 181.833 85.3559 180.337 85.3559H177.103ZM178.687 79.5259L179.391 76.8199H182.053C183.373 76.8199 183.923 77.2379 183.923 77.9639C183.923 78.9319 183.131 79.5259 181.569 79.5259H178.687ZM188.407 88.7879H200.859L201.827 85.1579H193.599L194.259 82.6939H201.607L202.509 79.3499H195.161L195.799 76.9959H203.895L204.885 73.3879H192.565L188.407 88.7879ZM221.076 73.3879H216.83L215.312 79.2619H214.674L211.704 73.3879H207.04L211.066 80.7579L202.442 88.7879H207.744L213.728 82.8259H214.366L212.694 88.7879H216.94L218.458 82.8259H219.228L222.44 88.7879H227.104L222.77 81.3079L231.042 73.3879H225.762L219.998 79.2619H219.426L221.076 73.3879ZM229.022 88.7879H241.474L242.442 85.1579H234.214L234.874 82.6939H242.222L243.124 79.3499H235.776L236.414 76.9959H244.51L245.5 73.3879H233.18L229.022 88.7879ZM252.959 89.0959C255.885 89.0959 257.909 87.9079 259.405 86.2139L256.523 83.6619C255.533 84.6519 254.565 85.2239 253.223 85.2239C251.441 85.2239 250.143 84.0139 250.143 82.0559C250.143 80.5819 250.737 79.2399 251.683 78.2719C252.497 77.4579 253.553 76.9519 254.763 76.9519C256.259 76.9519 257.227 77.6559 257.843 78.9539L261.539 76.9739C260.593 74.5979 258.459 73.0799 255.313 73.0799C252.431 73.0799 250.099 74.1799 248.449 75.8299C246.623 77.6559 245.677 79.9879 245.677 82.3419C245.677 86.4779 248.713 89.0959 252.959 89.0959ZM264.479 88.7879H268.747L271.871 77.1279H276.491L277.481 73.3879H263.995L263.005 77.1279H267.603L264.479 88.7879ZM275.711 88.7879H282.223C285.127 88.7879 287.327 88.0179 288.713 86.6319C289.703 85.6639 290.319 84.2999 290.319 82.6279C290.319 81.3739 289.923 80.3399 289.131 79.5479C288.097 78.5139 286.403 77.9859 284.203 77.9859H282.905L284.137 73.3879H279.869L275.711 88.7879ZM285.963 82.9579C285.963 83.5299 285.765 84.0139 285.347 84.4319C284.753 85.0259 283.829 85.2679 282.707 85.2679H280.947L281.981 81.3519H283.741C284.599 81.3519 285.193 81.5279 285.545 81.9019C285.831 82.1659 285.963 82.5179 285.963 82.9579ZM291.303 88.7879H295.593L297.155 82.9359H299.707C300.059 86.5439 302.787 89.0739 306.747 89.0739C309.233 89.0739 311.301 88.1059 312.951 86.4559C314.623 84.7839 315.613 82.4079 315.613 80.0099C315.613 76.0279 312.797 73.1019 308.551 73.1019C306.065 73.1019 303.975 74.0919 302.369 75.6979C301.379 76.6879 300.653 77.8319 300.191 79.1519H298.167L299.729 73.3879H295.461L291.303 88.7879ZM307.077 85.2459C305.053 85.2459 304.019 83.8159 304.019 81.8579C304.019 80.3839 304.635 78.9979 305.537 78.0959C306.241 77.3919 307.099 76.9299 308.221 76.9299C310.245 76.9299 311.279 78.3379 311.279 80.2959C311.279 81.7919 310.663 83.1779 309.761 84.0799C309.057 84.7839 308.199 85.2459 307.077 85.2459Z" fill="white"/>
</g>
<g clip-path="url(#clip0)">
<path d="M156.051 55.2732L166.857 6.90911C167.035 6.20047 167.743 5.669 168.452 5.669H184.75C184.75 5.669 177.487 37.7346 177.133 39.8605C176.601 41.9863 174.475 43.2265 173.235 43.5808H194.14L191.837 54.0331C191.659 54.7417 190.951 55.2732 190.242 55.2732H156.051ZM231.343 55.2732C232.051 55.2732 232.76 54.7417 232.937 54.0331L235.24 43.5808H214.336C215.576 43.2265 217.702 41.9863 218.233 39.8605C218.765 37.7346 225.851 5.669 225.851 5.669H209.552C208.844 5.669 208.135 6.20047 207.958 6.90911L197.151 55.2732H231.343ZM292.462 55.9818L286.085 49.7813L279.707 55.9818L286.085 62.1823L292.462 55.9818ZM150.913 53.8559C150.913 54.5645 150.382 55.2732 149.673 55.2732H134.438C134.438 55.2732 133.906 48.8955 133.729 46.9468C133.552 44.998 134.969 43.9351 136.032 43.5808H118.67L113.533 54.0331C113.179 54.7417 112.47 55.2732 111.584 55.2732H97.5887L122.214 6.55479C122.568 6.02332 123.099 5.669 123.808 5.669H145.776L150.913 53.8559ZM132.843 33.3056L131.603 17.3614C131.603 17.3614 126.288 28.168 125.757 29.4081C124.694 31.534 123.277 32.597 122.214 33.1285H132.843V33.3056ZM260.574 19.3101C260.574 17.8929 261.814 15.5898 268.014 15.5898C271.912 15.5898 276.164 16.8299 278.112 17.3614C278.821 17.5386 279.53 17.1843 279.707 16.6528L283.25 7.26342C283.25 7.26342 277.404 5.13753 269.255 5.13753C253.133 5.13753 244.275 12.7553 244.275 22.1447C244.275 29.0538 262.7 27.4594 262.7 40.3919C262.7 42.5178 260.397 44.1122 255.082 44.1122C250.83 44.1122 245.161 42.695 242.504 41.9863C241.795 41.8092 241.087 42.1635 240.909 42.8721L238.429 53.6788C238.429 53.6788 247.11 55.4503 254.551 55.4503C272.621 55.4503 280.238 46.9468 280.238 38.9747C280.416 25.1564 260.574 25.1564 260.574 19.3101ZM73.4952 55.2732H89.7938C90.5024 55.2732 91.211 54.7417 91.3882 54.0331L102.195 5.669H85.8963C85.1877 5.669 84.479 6.20047 84.3019 6.90911L80.0501 25.6878H62.5115C63.7516 25.3335 65.8775 24.0934 66.4089 21.9675C66.9404 19.8416 69.9521 5.84616 69.9521 5.84616H53.8307C53.1221 5.84616 52.4135 6.37763 52.2363 7.08626L41.4297 55.2732H57.7282C58.4368 55.2732 59.1455 54.7417 59.3226 54.0331L63.0429 37.2031H80.5816C79.3415 37.5574 77.2156 38.7975 76.6841 40.9234C76.3298 43.0493 73.4952 55.2732 73.4952 55.2732Z" stroke="#5BC5F2" stroke-width="2.00879" stroke-miterlimit="10"/>
<path d="M156.051 55.2732L166.857 6.90911C167.035 6.20047 167.743 5.669 168.452 5.669H184.75C184.75 5.669 177.487 37.7346 177.133 39.8605C176.601 41.9863 174.475 43.2265 173.235 43.5808H194.14L191.837 54.0331C191.659 54.7417 190.951 55.2732 190.242 55.2732H156.051ZM231.343 55.2732C232.051 55.2732 232.76 54.7417 232.937 54.0331L235.24 43.5808H214.336C215.576 43.2265 217.702 41.9863 218.233 39.8605C218.765 37.7346 225.851 5.669 225.851 5.669H209.552C208.844 5.669 208.135 6.20047 207.958 6.90911L197.151 55.2732H231.343ZM292.462 55.9818L286.085 49.7813L279.707 55.9818L286.085 62.1823L292.462 55.9818ZM150.913 53.8559C150.913 54.5645 150.382 55.2732 149.673 55.2732H134.438C134.438 55.2732 133.906 48.8955 133.729 46.9468C133.552 44.998 134.969 43.9351 136.032 43.5808H118.67L113.533 54.0331C113.179 54.7417 112.47 55.2732 111.584 55.2732H97.5887L122.214 6.55479C122.568 6.02332 123.099 5.669 123.808 5.669H145.776L150.913 53.8559ZM132.843 33.3056L131.603 17.3614C131.603 17.3614 126.288 28.168 125.757 29.4081C124.694 31.534 123.277 32.597 122.214 33.1285H132.843V33.3056ZM260.574 19.3101C260.574 17.8929 261.814 15.5898 268.014 15.5898C271.912 15.5898 276.164 16.8299 278.113 17.3614C278.821 17.5386 279.53 17.1843 279.707 16.6528L283.25 7.26342C283.25 7.26342 277.404 5.13753 269.255 5.13753C253.133 5.13753 244.275 12.7553 244.275 22.1447C244.275 29.0538 262.7 27.4594 262.7 40.3919C262.7 42.5178 260.397 44.1122 255.082 44.1122C250.83 44.1122 245.161 42.695 242.504 41.9863C241.795 41.8092 241.087 42.1635 240.909 42.8721L238.429 53.6788C238.429 53.6788 247.11 55.4503 254.551 55.4503C272.621 55.4503 280.238 46.9468 280.238 38.9747C280.416 25.1564 260.574 25.1564 260.574 19.3101ZM73.4952 55.2732H89.7938C90.5024 55.2732 91.211 54.7417 91.3882 54.0331L102.195 5.669H85.8963C85.1877 5.669 84.479 6.20047 84.3019 6.90911L80.0501 25.6878H62.5115C63.7516 25.3335 65.8775 24.0934 66.4089 21.9675C66.9404 19.8416 69.9521 5.84616 69.9521 5.84616H53.8307C53.1221 5.84616 52.4135 6.37763 52.2363 7.08626L41.4297 55.2732H57.7282C58.4368 55.2732 59.1455 54.7417 59.3226 54.0331L63.0429 37.2031H80.5816C79.3415 37.5574 77.2156 38.7975 76.6841 40.9234C76.3298 43.0493 73.4952 55.2732 73.4952 55.2732Z" fill="#5BC5F2"/>
<path d="M153.924 53.1473L164.908 3.54315C165.085 2.83452 165.794 2.30304 166.503 2.30304H182.801C182.801 2.30304 175.538 35.2544 175.183 37.3803C174.652 39.5062 172.526 40.9234 171.286 41.2778H192.19L189.887 51.9072C189.71 52.6159 189.002 53.1473 188.293 53.1473H153.924ZM229.394 53.1473C230.102 53.1473 230.811 52.6159 230.988 51.9072L233.291 41.2778H212.386C213.627 40.9234 215.752 39.5062 216.284 37.3803C216.815 35.2544 223.902 2.30304 223.902 2.30304H207.603C206.895 2.30304 206.186 2.83452 206.009 3.54315L195.202 53.1473H229.394ZM291.045 53.3245L283.604 45.8839L276.163 53.3245L283.604 60.7651L291.045 53.3245ZM148.255 51.7301C148.255 52.4387 147.724 53.1473 147.015 53.1473H131.957C131.957 53.1473 131.425 46.5925 131.248 44.6438C131.071 42.695 132.488 41.6321 133.551 41.2778H116.19L111.052 51.9072C110.698 52.6159 109.989 53.1473 109.103 53.1473H95.108L119.379 3.36599C119.733 2.83452 120.264 2.4802 120.973 2.4802H142.941L148.255 51.7301ZM130.008 30.6483L128.768 14.3498C128.768 14.3498 123.453 25.5107 122.922 26.7508C121.859 28.8767 120.442 30.1168 119.379 30.6483H130.008ZM258.979 16.4757C258.979 15.0584 260.219 12.7554 266.42 12.7554C270.317 12.7554 274.569 13.9955 276.518 14.5269C277.226 14.7041 277.935 14.3498 278.112 13.8183L281.655 4.25178C281.655 4.25178 275.809 2.12589 267.66 2.12589C251.538 2.12589 242.68 9.92083 242.68 19.4873C242.68 32.2427 261.105 31.8884 261.105 38.0889C261.105 40.2148 258.625 41.9864 253.487 41.9864C249.235 41.9864 243.566 40.5691 240.909 39.6833C240.2 39.5062 239.492 39.8605 239.314 40.7463L236.834 51.7301C236.834 51.7301 245.515 53.6788 252.956 53.6788C271.026 53.6788 278.643 44.9981 278.643 36.8488C278.643 22.499 258.979 22.3219 258.979 16.4757ZM71.546 53.1473H87.8445C88.5532 53.1473 89.2618 52.6159 89.439 51.9072L100.246 2.4802H83.9471C83.2384 2.4802 82.5298 3.01167 82.3527 3.7203L78.1009 22.8533H60.5622C61.8024 22.499 63.9282 21.0818 64.4597 18.9559C64.9912 16.83 68.0029 2.30304 68.0029 2.30304H51.8815C51.1729 2.30304 50.4643 2.83452 50.2871 3.54315L39.4805 53.1473H55.779C56.4876 53.1473 57.1962 52.6159 57.3734 51.9072L61.0937 34.7229H78.6323C77.3922 35.0772 75.2663 36.4945 74.7349 38.6204C74.3806 40.7463 71.546 53.1473 71.546 53.1473Z" stroke="#003088" stroke-width="4.01741" stroke-miterlimit="10"/>
<path d="M153.924 53.1473L164.908 3.54315C165.085 2.83452 165.794 2.30304 166.503 2.30304H182.801C182.801 2.30304 175.538 35.2544 175.183 37.3803C174.652 39.5062 172.526 40.9234 171.286 41.2778H192.19L189.887 51.9072C189.71 52.6159 189.002 53.1473 188.293 53.1473H153.924ZM229.394 53.1473C230.102 53.1473 230.811 52.6159 230.988 51.9072L233.291 41.2778H212.386C213.627 40.9234 215.752 39.5062 216.284 37.3803C216.815 35.2544 223.902 2.30304 223.902 2.30304H207.603C206.895 2.30304 206.186 2.83452 206.009 3.54315L195.202 53.1473H229.394ZM291.045 53.3245L283.604 45.8839L276.163 53.3245L283.604 60.7651L291.045 53.3245ZM148.255 51.7301C148.255 52.4387 147.724 53.1473 147.015 53.1473H131.957C131.957 53.1473 131.425 46.5925 131.248 44.6438C131.071 42.695 132.488 41.6321 133.551 41.2778H116.19L111.052 51.9072C110.698 52.6159 109.989 53.1473 109.103 53.1473H95.108L119.379 3.36599C119.733 2.83452 120.264 2.4802 120.973 2.4802H142.941L148.255 51.7301ZM130.008 30.6483L128.768 14.3498C128.768 14.3498 123.453 25.5107 122.922 26.7508C121.859 28.8767 120.442 30.1168 119.379 30.6483H130.008ZM258.979 16.4757C258.979 15.0584 260.219 12.7554 266.42 12.7554C270.317 12.7554 274.569 13.9955 276.518 14.5269C277.226 14.7041 277.935 14.3498 278.112 13.8183L281.655 4.25178C281.655 4.25178 275.809 2.12589 267.66 2.12589C251.538 2.12589 242.68 9.92083 242.68 19.4873C242.68 32.2427 261.105 31.8884 261.105 38.0889C261.105 40.2148 258.625 41.9864 253.487 41.9864C249.235 41.9864 243.566 40.5691 240.909 39.6833C240.2 39.5062 239.492 39.8605 239.314 40.7463L236.834 51.7301C236.834 51.7301 245.515 53.6788 252.956 53.6788C271.026 53.6788 278.643 44.9981 278.643 36.8488C278.643 22.499 258.979 22.3219 258.979 16.4757ZM71.546 53.1473H87.8445C88.5532 53.1473 89.2618 52.6159 89.439 51.9072L100.246 2.4802H83.9471C83.2384 2.4802 82.5298 3.01167 82.3527 3.7203L78.1009 22.8533H60.5622C61.8024 22.499 63.9282 21.0818 64.4597 18.9559C64.9912 16.83 68.0029 2.30304 68.0029 2.30304H51.8815C51.1729 2.30304 50.4643 2.83452 50.2871 3.54315L39.4805 53.1473H55.779C56.4876 53.1473 57.1962 52.6159 57.3734 51.9072L61.0937 34.7229H78.6323C77.3922 35.0772 75.2663 36.4945 74.7349 38.6204C74.3806 40.7463 71.546 53.1473 71.546 53.1473Z" stroke="#003088" stroke-width="2.00879" stroke-miterlimit="10"/>
<path d="M153.924 53.1473L164.908 3.54315C165.085 2.83452 165.794 2.30304 166.503 2.30304H182.801C182.801 2.30304 175.538 35.2544 175.183 37.3803C174.652 39.5062 172.526 40.9234 171.286 41.2778H192.19L189.887 51.9072C189.71 52.6159 189.002 53.1473 188.293 53.1473H153.924ZM229.394 53.1473C230.102 53.1473 230.811 52.6159 230.988 51.9072L233.291 41.2778H212.386C213.627 40.9234 215.752 39.5062 216.284 37.3803C216.815 35.2544 223.902 2.30304 223.902 2.30304H207.603C206.895 2.30304 206.186 2.83452 206.009 3.54315L195.202 53.1473H229.394ZM291.045 53.3245L283.604 45.8839L276.163 53.3245L283.604 60.7651L291.045 53.3245ZM148.255 51.7301C148.255 52.4387 147.724 53.1473 147.015 53.1473H131.957C131.957 53.1473 131.425 46.5925 131.248 44.6438C131.071 42.695 132.488 41.6321 133.551 41.2778H116.19L111.052 51.9072C110.698 52.6159 109.989 53.1473 109.103 53.1473H95.108L119.379 3.36599C119.733 2.83452 120.264 2.4802 120.973 2.4802H142.941L148.255 51.7301ZM130.008 30.6483L128.768 14.3498C128.768 14.3498 123.453 25.5107 122.922 26.7508C121.859 28.8767 120.442 30.1168 119.379 30.6483H130.008ZM258.979 16.4757C258.979 15.0584 260.219 12.7554 266.42 12.7554C270.317 12.7554 274.569 13.9955 276.518 14.5269C277.226 14.7041 277.935 14.3498 278.112 13.8183L281.655 4.25178C281.655 4.25178 275.809 2.12589 267.66 2.12589C251.538 2.12589 242.68 9.92083 242.68 19.4873C242.68 32.2427 261.105 31.8884 261.105 38.0889C261.105 40.2148 258.625 41.9864 253.487 41.9864C249.235 41.9864 243.566 40.5691 240.909 39.6833C240.2 39.5062 239.492 39.8605 239.314 40.7463L236.834 51.7301C236.834 51.7301 245.515 53.6788 252.956 53.6788C271.026 53.6788 278.643 44.9981 278.643 36.8488C278.643 22.499 258.979 22.3219 258.979 16.4757ZM71.546 53.1473H87.8445C88.5532 53.1473 89.2618 52.6159 89.439 51.9072L100.246 2.4802H83.9471C83.2384 2.4802 82.5298 3.01167 82.3527 3.7203L78.1009 22.8533H60.5622C61.8024 22.499 63.9282 21.0818 64.4597 18.9559C64.9912 16.83 68.0029 2.30304 68.0029 2.30304H51.8815C51.1729 2.30304 50.4643 2.83452 50.2871 3.54315L39.4805 53.1473H55.779C56.4876 53.1473 57.1962 52.6159 57.3734 51.9072L61.0937 34.7229H78.6323C77.3922 35.0772 75.2663 36.4945 74.7349 38.6204C74.3806 40.7463 71.546 53.1473 71.546 53.1473Z" fill="white"/>
</g>
<defs>
<filter id="filter0_d" x="11.9551" y="73.0799" width="306.627" height="21.2573" filterUnits="userSpaceOnUse" color-interpolation-filters="sRGB">
<feFlood flood-opacity="0" result="BackgroundImageFix"/>
<feColorMatrix in="SourceAlpha" type="matrix" values="0 0 0 0 0 0 0 0 0 0 0 0 0 0 0 0 0 0 127 0"/>
<feOffset dx="2.9697" dy="2.22727"/>
<feColorMatrix type="matrix" values="0 0 0 0 0.0235294 0 0 0 0 0.203922 0 0 0 0 0.521569 0 0 0 1 0"/>
<feBlend mode="normal" in2="BackgroundImageFix" result="effect1_dropShadow"/>
<feBlend mode="normal" in="SourceGraphic" in2="effect1_dropShadow" result="shape"/>
</filter>
<clipPath id="clip0">
<rect width="256.879" height="63.5996" fill="white" transform="translate(37)"/>
</clipPath>
</defs>
</svg>
