<svg width="35" height="32" viewBox="0 0 35 32" fill="none" xmlns="http://www.w3.org/2000/svg">
<g clip-path="url(#clip0)">
<path d="M5.33782 9.5937L18.2048 2.38751C18.4211 2.2663 18.6605 2.20227 18.8974 2.20227C19.1344 2.20227 19.36 2.2663 19.5501 2.38751L30.8496 9.595C30.9403 9.65273 31.0117 9.73444 31.0568 9.83217C31.102 9.9299 31.1193 10.0403 31.1071 10.1526L29.3232 26.6811C29.286 27.0258 29.1126 27.3565 28.8411 27.6002C28.5696 27.844 28.2223 27.9809 27.8756 27.9809H4.34299C3.99625 27.9809 3.6785 27.844 3.45963 27.6002C3.24076 27.3565 3.1387 27.0258 3.17591 26.6811L4.95994 10.1513C4.97204 10.039 5.01321 9.9286 5.07944 9.83087C5.14566 9.73314 5.23468 9.65143 5.33782 9.5937ZM26.1953 11.4004L17.2155 18.4702L9.59394 11.3926L7.6884 13.3736L16.8617 21.8939L27.6931 13.3671L26.1953 11.4004V11.4004Z" fill="#FDF100"/>
</g>
<defs>
<clipPath id="clip0">
<rect width="31.3768" height="31.3768" fill="white" transform="matrix(1 0 -0.107305 0.994226 3.3667 0.684814)"/>
</clipPath>
</defs>
</svg>
