<svg width="32" height="32" viewBox="0 0 32 32" fill="none" xmlns="http://www.w3.org/2000/svg">
<g clip-path="url(#clip0)">
<path d="M27.772 21.4662L27.7341 26.0888C27.7315 26.4198 27.6035 26.7386 27.3758 26.9807C27.1482 27.2228 26.8379 27.3704 26.5075 27.3936C25.9359 27.4328 25.469 27.4537 25.1081 27.4537C13.5549 27.4537 4.26708 18.0893 4.36185 6.53652C4.36481 6.1757 4.38825 5.70899 4.43347 5.13769C4.45934 4.80751 4.60943 4.49842 4.85343 4.27277C5.09744 4.04713 5.4172 3.92173 5.74819 3.92188H10.371C10.5332 3.92171 10.6892 3.98183 10.8086 4.09055C10.928 4.19927 11.0024 4.34882 11.0173 4.51017C11.0449 4.81086 11.0704 5.0501 11.095 5.23181C11.34 7.04497 11.858 8.80843 12.6314 10.4624C12.7535 10.7239 12.6699 11.0363 12.4332 11.2037L9.59533 13.2196C11.2874 17.2389 14.4643 20.4419 18.4696 22.1669L20.506 19.3509C20.5892 19.2359 20.71 19.1533 20.8472 19.1177C20.9844 19.0821 21.1293 19.0957 21.2567 19.1561C22.9041 19.9416 24.6628 20.4727 26.4733 20.7314C26.6548 20.7576 26.8938 20.7863 27.1916 20.8151C27.3526 20.8316 27.5012 20.9074 27.6087 21.0276C27.7162 21.1479 27.7748 21.3042 27.7733 21.4662H27.772Z" fill="#FDF100"/>
</g>
<defs>
<clipPath id="clip0">
<rect width="31.3768" height="31.3768" fill="white" transform="matrix(1 0 -0.00820296 0.999966 0.493164 0)"/>
</clipPath>
</defs>
</svg>
