<svg width="42" height="41" viewBox="0 0 42 41" fill="none" xmlns="http://www.w3.org/2000/svg">
<path d="M0.252589 20.3078C0.240915 9.35722 9.11485 0.473816 20.0655 0.473816H21.3562C32.2903 0.473816 41.1574 9.33147 41.169 20.2656C41.1807 31.2162 32.3068 40.0996 21.3562 40.0996H20.0655C9.13135 40.0996 0.264245 31.2419 0.252589 20.3078Z" fill="#84C4F0"/>
<path d="M26.1926 12.2285C30.9626 14.7776 32.7323 20.6544 30.1454 25.3547C27.5584 30.0549 21.5943 31.7988 16.8243 29.2496C12.0542 26.7005 10.2845 20.8237 12.8715 16.1234C14.4625 13.2327 17.3309 11.4602 20.4134 11.1169M20.4134 11.1169L14.549 9.40398M20.4134 11.1169L17.7296 17.0163" stroke="white" stroke-width="3.20625" stroke-linecap="round" stroke-linejoin="round"/>
</svg>
