<svg width="22" height="22" viewBox="0 0 22 22" fill="none" xmlns="http://www.w3.org/2000/svg">
<path fill-rule="evenodd" clip-rule="evenodd" d="M1.64802 10.4079C1.64802 12.4058 2.24574 14.2642 3.27212 15.8138L0.644537 18.4414C-0.121096 19.207 -0.121096 20.4484 0.644537 21.214C1.41017 21.9796 2.65151 21.9796 3.41714 21.214L6.04472 18.5864C7.59438 19.6128 9.45272 20.2105 11.4507 20.2105C16.8645 20.2105 21.2533 15.8217 21.2533 10.4079C21.2533 4.99404 16.8645 0.605255 11.4507 0.605255C6.03681 0.605255 1.64802 4.99404 1.64802 10.4079ZM17.332 10.4079C17.332 13.6562 14.6987 16.2894 11.4504 16.2894C8.20211 16.2894 5.56884 13.6562 5.56884 10.4079C5.56884 7.15955 8.20211 4.52628 11.4504 4.52628C14.6987 4.52628 17.332 7.15955 17.332 10.4079Z" fill="white"/>
</svg>
