<svg width="309" height="75" viewBox="0 0 309 75" fill="none" xmlns="http://www.w3.org/2000/svg">
<rect y="0.0274658" width="309" height="61.2893" fill="white"/>
<path d="M36.2807 42.2153H42.9842L41.3881 33.788L47.9639 39.4062L51.4115 33.5326L43.3034 30.6597L51.4115 27.7868L47.9639 21.8494L41.3881 27.4675L42.9842 19.0403H36.2807L37.8768 27.4675L31.3009 21.8494L27.8534 27.7868L35.9615 30.6597L27.8534 33.5326L31.3009 39.4062L37.8768 33.788L36.2807 42.2153ZM68.1897 42.2153H74.8932L73.2971 33.788L79.873 39.4062L83.3205 33.5326L75.2124 30.6597L83.3205 27.7868L79.873 21.8494L73.2971 27.4675L74.8932 19.0403H68.1897L69.7858 27.4675L63.2099 21.8494L59.7624 27.7868L67.8705 30.6597L59.7624 33.5326L63.2099 39.4062L69.7858 33.788L68.1897 42.2153ZM100.099 42.2153H106.802L105.206 33.788L111.782 39.4062L115.23 33.5326L107.121 30.6597L115.23 27.7868L111.782 21.8494L105.206 27.4675L106.802 19.0403H100.099L101.695 27.4675L95.119 21.8494L91.6714 27.7868L99.7795 30.6597L91.6714 33.5326L95.119 39.4062L101.695 33.788L100.099 42.2153ZM132.008 42.2153H138.711L137.115 33.788L143.691 39.4062L147.139 33.5326L139.03 30.6597L147.139 27.7868L143.691 21.8494L137.115 27.4675L138.711 19.0403H132.008L133.604 27.4675L127.028 21.8494L123.58 27.7868L131.689 30.6597L123.58 33.5326L127.028 39.4062L133.604 33.788L132.008 42.2153ZM163.917 42.2153H170.62L169.024 33.788L175.6 39.4062L179.048 33.5326L170.939 30.6597L179.048 27.7868L175.6 21.8494L169.024 27.4675L170.62 19.0403H163.917L165.513 27.4675L158.937 21.8494L155.489 27.7868L163.598 30.6597L155.489 33.5326L158.937 39.4062L165.513 33.788L163.917 42.2153ZM195.826 42.2153H202.529L200.933 33.788L207.509 39.4062L210.957 33.5326L202.849 30.6597L210.957 27.7868L207.509 21.8494L200.933 27.4675L202.529 19.0403H195.826L197.422 27.4675L190.846 21.8494L187.399 27.7868L195.507 30.6597L187.399 33.5326L190.846 39.4062L197.422 33.788L195.826 42.2153ZM227.735 42.2153H234.438L232.842 33.788L239.418 39.4062L242.866 33.5326L234.758 30.6597L242.866 27.7868L239.418 21.8494L232.842 27.4675L234.438 19.0403H227.735L229.331 27.4675L222.755 21.8494L219.308 27.7868L227.416 30.6597L219.308 33.5326L222.755 39.4062L229.331 33.788L227.735 42.2153ZM259.644 42.2153H266.347L264.751 33.788L271.327 39.4062L274.775 33.5326L266.667 30.6597L274.775 27.7868L271.327 21.8494L264.751 27.4675L266.347 19.0403H259.644L261.24 27.4675L254.664 21.8494L251.217 27.7868L259.325 30.6597L251.217 33.5326L254.664 39.4062L261.24 33.788L259.644 42.2153Z" fill="#00155B"/>
</svg>
